<mxfile host="app.diagrams.net" agent="Mozilla/5.0 (Windows NT 10.0; Win64; x64) AppleWebKit/537.36 (KHTML, like Gecko) Chrome/135.0.0.0 Safari/537.36" version="26.2.14">
  <diagram name="Page-1" id="Ufr-0xuOaN1EEb4i5wZD">
    <mxGraphModel dx="1215" dy="1769" grid="1" gridSize="10" guides="1" tooltips="1" connect="1" arrows="1" fold="1" page="1" pageScale="1" pageWidth="850" pageHeight="1100" math="0" shadow="0">
      <root>
        <mxCell id="0" />
        <mxCell id="1" parent="0" />
        <mxCell id="ps-Ch1RTGVYVtVs_9g6R-15" value="" style="rounded=0;whiteSpace=wrap;html=1;" vertex="1" parent="1">
          <mxGeometry x="180" y="170" width="460" height="790" as="geometry" />
        </mxCell>
        <mxCell id="ps-Ch1RTGVYVtVs_9g6R-5" value="" style="rounded=0;whiteSpace=wrap;html=1;" vertex="1" parent="1">
          <mxGeometry x="250" y="400" width="350" height="210" as="geometry" />
        </mxCell>
        <mxCell id="ps-Ch1RTGVYVtVs_9g6R-1" value="&lt;div&gt;&lt;br&gt;&lt;/div&gt;&lt;div&gt;&lt;br&gt;&lt;/div&gt;&lt;div&gt;&lt;br&gt;&lt;/div&gt;&lt;div&gt;&lt;br&gt;&lt;/div&gt;&lt;div&gt;&lt;br&gt;&lt;/div&gt;&lt;span style=&quot;background-color: transparent;&quot;&gt;saudi-date-classifier Docker Container&lt;/span&gt;&amp;nbsp;&lt;div&gt;Port : 8501&lt;/div&gt;" style="rounded=0;whiteSpace=wrap;html=1;" vertex="1" parent="1">
          <mxGeometry x="293.18" y="450" width="296.82" height="140" as="geometry" />
        </mxCell>
        <mxCell id="ps-Ch1RTGVYVtVs_9g6R-2" value="&lt;div&gt;&lt;br&gt;&lt;/div&gt;&lt;div&gt;&lt;br&gt;&lt;/div&gt;&lt;div&gt;&lt;br&gt;&lt;/div&gt;&lt;div&gt;&lt;br&gt;&lt;/div&gt;&lt;div&gt;&lt;br&gt;&lt;/div&gt;&lt;div&gt;ECS&lt;/div&gt;" style="points=[];aspect=fixed;html=1;align=center;shadow=0;dashed=0;fillColor=#FF6A00;strokeColor=none;shape=mxgraph.alibaba_cloud.ecs_elastic_compute_service;" vertex="1" parent="1">
          <mxGeometry x="273.18" y="440" width="53.64" height="50" as="geometry" />
        </mxCell>
        <mxCell id="ps-Ch1RTGVYVtVs_9g6R-3" value="" style="image;sketch=0;aspect=fixed;html=1;points=[];align=center;fontSize=12;image=img/lib/mscae/Docker.svg;" vertex="1" parent="1">
          <mxGeometry x="395.18" y="470" width="85.37" height="70" as="geometry" />
        </mxCell>
        <mxCell id="ps-Ch1RTGVYVtVs_9g6R-4" value="&amp;nbsp;Private IP" style="text;html=1;align=center;verticalAlign=middle;resizable=0;points=[];autosize=1;strokeColor=none;fillColor=none;" vertex="1" parent="1">
          <mxGeometry x="260" y="420" width="80" height="30" as="geometry" />
        </mxCell>
        <mxCell id="ps-Ch1RTGVYVtVs_9g6R-6" value="" style="points=[];aspect=fixed;html=1;align=center;shadow=0;dashed=0;fillColor=#FF6A00;strokeColor=none;shape=mxgraph.alibaba_cloud.vswitch;" vertex="1" parent="1">
          <mxGeometry x="223.44" y="382.01" width="53.18" height="37.99" as="geometry" />
        </mxCell>
        <mxCell id="ps-Ch1RTGVYVtVs_9g6R-7" value="VSwitch IP ZONE A" style="text;html=1;align=center;verticalAlign=middle;resizable=0;points=[];autosize=1;strokeColor=none;fillColor=none;" vertex="1" parent="1">
          <mxGeometry x="265.18" y="377.99" width="130" height="30" as="geometry" />
        </mxCell>
        <mxCell id="ps-Ch1RTGVYVtVs_9g6R-13" value="" style="points=[];aspect=fixed;html=1;align=center;shadow=0;dashed=0;fillColor=#FF6A00;strokeColor=none;shape=mxgraph.alibaba_cloud.vpc_virtual_private_cloud;" vertex="1" parent="1">
          <mxGeometry x="129.99999999999997" y="130" width="93.44" height="60" as="geometry" />
        </mxCell>
        <mxCell id="ps-Ch1RTGVYVtVs_9g6R-16" value="Private CIDR block:" style="text;html=1;align=center;verticalAlign=middle;resizable=0;points=[];autosize=1;strokeColor=none;fillColor=none;" vertex="1" parent="1">
          <mxGeometry x="223.44" y="145" width="130" height="30" as="geometry" />
        </mxCell>
        <mxCell id="ps-Ch1RTGVYVtVs_9g6R-46" value="" style="edgeStyle=orthogonalEdgeStyle;rounded=0;orthogonalLoop=1;jettySize=auto;html=1;" edge="1" parent="1" source="ps-Ch1RTGVYVtVs_9g6R-17" target="ps-Ch1RTGVYVtVs_9g6R-4">
          <mxGeometry relative="1" as="geometry">
            <Array as="points">
              <mxPoint x="305" y="339" />
              <mxPoint x="400" y="339" />
              <mxPoint x="400" y="435" />
            </Array>
          </mxGeometry>
        </mxCell>
        <mxCell id="ps-Ch1RTGVYVtVs_9g6R-17" value="&lt;div&gt;&lt;br&gt;&lt;/div&gt;&lt;div&gt;&lt;br&gt;&lt;/div&gt;&lt;div&gt;&lt;br&gt;&lt;/div&gt;&lt;div&gt;NAT getaway&lt;/div&gt;" style="rounded=0;whiteSpace=wrap;html=1;" vertex="1" parent="1">
          <mxGeometry x="250" y="200" width="110" height="100" as="geometry" />
        </mxCell>
        <mxCell id="ps-Ch1RTGVYVtVs_9g6R-18" value="" style="points=[];aspect=fixed;html=1;align=center;shadow=0;dashed=0;fillColor=#FF6A00;strokeColor=none;shape=mxgraph.alibaba_cloud.vswitch;" vertex="1" parent="1">
          <mxGeometry x="223.44" y="180" width="53.18" height="37.99" as="geometry" />
        </mxCell>
        <mxCell id="ps-Ch1RTGVYVtVs_9g6R-19" value="VSwitch IP ZONE A" style="text;html=1;align=center;verticalAlign=middle;resizable=0;points=[];autosize=1;strokeColor=none;fillColor=none;" vertex="1" parent="1">
          <mxGeometry x="276.62" y="180" width="130" height="30" as="geometry" />
        </mxCell>
        <mxCell id="ps-Ch1RTGVYVtVs_9g6R-20" value="" style="points=[];aspect=fixed;html=1;align=center;shadow=0;dashed=0;fillColor=#FF6A00;strokeColor=none;shape=mxgraph.alibaba_cloud.nat_gateway;" vertex="1" parent="1">
          <mxGeometry x="279.2" y="220" width="51.6" height="41.699999999999996" as="geometry" />
        </mxCell>
        <mxCell id="ps-Ch1RTGVYVtVs_9g6R-21" value="&lt;div&gt;&lt;br&gt;&lt;/div&gt;&lt;div&gt;&lt;br&gt;&lt;/div&gt;&lt;div&gt;&lt;br&gt;&lt;/div&gt;&lt;div&gt;&lt;br&gt;&lt;/div&gt;&lt;div&gt;&lt;br&gt;&lt;/div&gt;EIP2" style="points=[];aspect=fixed;html=1;align=center;shadow=0;dashed=0;fillColor=#FF6A00;strokeColor=none;shape=mxgraph.alibaba_cloud.eip_elastic_ip_address;" vertex="1" parent="1">
          <mxGeometry x="352.34000000000003" y="70" width="47.400000000000006" height="46.5" as="geometry" />
        </mxCell>
        <mxCell id="ps-Ch1RTGVYVtVs_9g6R-22" value="" style="points=[];aspect=fixed;html=1;align=center;shadow=0;dashed=0;fillColor=#FF6A00;strokeColor=none;shape=mxgraph.alibaba_cloud.eip_elastic_ip_address;" vertex="1" parent="1">
          <mxGeometry x="420.26" y="70" width="47.400000000000006" height="46.5" as="geometry" />
        </mxCell>
        <mxCell id="ps-Ch1RTGVYVtVs_9g6R-31" value="" style="rounded=0;whiteSpace=wrap;html=1;" vertex="1" parent="1">
          <mxGeometry x="250" y="672.01" width="350" height="210" as="geometry" />
        </mxCell>
        <mxCell id="ps-Ch1RTGVYVtVs_9g6R-32" value="&lt;div&gt;&lt;br&gt;&lt;/div&gt;&lt;div&gt;&lt;br&gt;&lt;/div&gt;&lt;div&gt;&lt;br&gt;&lt;/div&gt;&lt;div&gt;&lt;br&gt;&lt;/div&gt;&lt;div&gt;&lt;br&gt;&lt;/div&gt;&lt;span style=&quot;background-color: transparent;&quot;&gt;saudi-date-classifier Docker Container&lt;/span&gt;&amp;nbsp;&lt;div&gt;Port : 8501&lt;/div&gt;" style="rounded=0;whiteSpace=wrap;html=1;" vertex="1" parent="1">
          <mxGeometry x="293.18" y="722.01" width="296.82" height="140" as="geometry" />
        </mxCell>
        <mxCell id="ps-Ch1RTGVYVtVs_9g6R-33" value="&lt;div&gt;&lt;br&gt;&lt;/div&gt;&lt;div&gt;&lt;br&gt;&lt;/div&gt;&lt;div&gt;&lt;br&gt;&lt;/div&gt;&lt;div&gt;&lt;br&gt;&lt;/div&gt;&lt;div&gt;&lt;br&gt;&lt;/div&gt;&lt;div&gt;ECS&lt;/div&gt;" style="points=[];aspect=fixed;html=1;align=center;shadow=0;dashed=0;fillColor=#FF6A00;strokeColor=none;shape=mxgraph.alibaba_cloud.ecs_elastic_compute_service;" vertex="1" parent="1">
          <mxGeometry x="273.18" y="712.01" width="53.64" height="50" as="geometry" />
        </mxCell>
        <mxCell id="ps-Ch1RTGVYVtVs_9g6R-34" value="" style="image;sketch=0;aspect=fixed;html=1;points=[];align=center;fontSize=12;image=img/lib/mscae/Docker.svg;" vertex="1" parent="1">
          <mxGeometry x="395.18" y="742.01" width="85.37" height="70" as="geometry" />
        </mxCell>
        <mxCell id="ps-Ch1RTGVYVtVs_9g6R-35" value="&amp;nbsp;Private IP" style="text;html=1;align=center;verticalAlign=middle;resizable=0;points=[];autosize=1;strokeColor=none;fillColor=none;" vertex="1" parent="1">
          <mxGeometry x="260" y="692.01" width="80" height="30" as="geometry" />
        </mxCell>
        <mxCell id="ps-Ch1RTGVYVtVs_9g6R-36" value="" style="points=[];aspect=fixed;html=1;align=center;shadow=0;dashed=0;fillColor=#FF6A00;strokeColor=none;shape=mxgraph.alibaba_cloud.vswitch;" vertex="1" parent="1">
          <mxGeometry x="223.44" y="654.02" width="53.18" height="37.99" as="geometry" />
        </mxCell>
        <mxCell id="ps-Ch1RTGVYVtVs_9g6R-37" value="VSwitch IP ZONE B" style="text;html=1;align=center;verticalAlign=middle;resizable=0;points=[];autosize=1;strokeColor=none;fillColor=none;" vertex="1" parent="1">
          <mxGeometry x="265.18" y="650" width="130" height="30" as="geometry" />
        </mxCell>
        <mxCell id="ps-Ch1RTGVYVtVs_9g6R-40" style="edgeStyle=orthogonalEdgeStyle;rounded=0;orthogonalLoop=1;jettySize=auto;html=1;" edge="1" parent="1" source="ps-Ch1RTGVYVtVs_9g6R-38" target="ps-Ch1RTGVYVtVs_9g6R-21">
          <mxGeometry relative="1" as="geometry" />
        </mxCell>
        <mxCell id="ps-Ch1RTGVYVtVs_9g6R-41" style="edgeStyle=orthogonalEdgeStyle;rounded=0;orthogonalLoop=1;jettySize=auto;html=1;exitX=0.5;exitY=1;exitDx=0;exitDy=0;exitPerimeter=0;" edge="1" parent="1" source="ps-Ch1RTGVYVtVs_9g6R-38" target="ps-Ch1RTGVYVtVs_9g6R-39">
          <mxGeometry relative="1" as="geometry" />
        </mxCell>
        <mxCell id="ps-Ch1RTGVYVtVs_9g6R-38" value="" style="sketch=0;aspect=fixed;pointerEvents=1;shadow=0;dashed=0;html=1;strokeColor=none;labelPosition=center;verticalLabelPosition=bottom;verticalAlign=top;align=center;fillColor=#00188D;shape=mxgraph.mscae.enterprise.internet_hollow" vertex="1" parent="1">
          <mxGeometry x="356.62" y="-120" width="112.9" height="70" as="geometry" />
        </mxCell>
        <mxCell id="ps-Ch1RTGVYVtVs_9g6R-39" value="&lt;div&gt;&lt;br&gt;&lt;/div&gt;&lt;div&gt;&lt;br&gt;&lt;/div&gt;&lt;div&gt;&lt;br&gt;&lt;/div&gt;EIP1" style="text;html=1;align=center;verticalAlign=middle;resizable=0;points=[];autosize=1;strokeColor=none;fillColor=none;" vertex="1" parent="1">
          <mxGeometry x="415" y="68" width="50" height="70" as="geometry" />
        </mxCell>
        <mxCell id="ps-Ch1RTGVYVtVs_9g6R-42" style="edgeStyle=orthogonalEdgeStyle;rounded=0;orthogonalLoop=1;jettySize=auto;html=1;entryX=0.264;entryY=0.831;entryDx=0;entryDy=0;entryPerimeter=0;" edge="1" parent="1" source="ps-Ch1RTGVYVtVs_9g6R-21" target="ps-Ch1RTGVYVtVs_9g6R-19">
          <mxGeometry relative="1" as="geometry" />
        </mxCell>
        <mxCell id="ps-Ch1RTGVYVtVs_9g6R-43" style="edgeStyle=orthogonalEdgeStyle;rounded=0;orthogonalLoop=1;jettySize=auto;html=1;entryX=0.996;entryY=0.708;entryDx=0;entryDy=0;entryPerimeter=0;" edge="1" parent="1" source="ps-Ch1RTGVYVtVs_9g6R-39" target="ps-Ch1RTGVYVtVs_9g6R-17">
          <mxGeometry relative="1" as="geometry">
            <Array as="points">
              <mxPoint x="440" y="271" />
            </Array>
          </mxGeometry>
        </mxCell>
        <mxCell id="ps-Ch1RTGVYVtVs_9g6R-47" style="edgeStyle=orthogonalEdgeStyle;rounded=0;orthogonalLoop=1;jettySize=auto;html=1;entryX=-0.014;entryY=0.595;entryDx=0;entryDy=0;entryPerimeter=0;" edge="1" parent="1" source="ps-Ch1RTGVYVtVs_9g6R-17" target="ps-Ch1RTGVYVtVs_9g6R-33">
          <mxGeometry relative="1" as="geometry">
            <Array as="points">
              <mxPoint x="210" y="250" />
              <mxPoint x="210" y="742" />
            </Array>
          </mxGeometry>
        </mxCell>
      </root>
    </mxGraphModel>
  </diagram>
</mxfile>
